<svg xmlns="http://www.w3.org/2000/svg" viewBox="0 0 750 500"><g id="freepik--background-simple--inject-10"><path d="M722.48,330.92c65.89-140.36-30.7-302.81-185.87-315.39a497.39,497.39,0,0,0-54.33-1.4c-157.58,4.45-207.87,52.27-247,60.05S109,50.83,65.41,83.08-31.23,263,64.59,368.75s290.39-4,378.61,6.67S594,428.94,658.87,401.13C683.17,390.71,705.91,366.21,722.48,330.92Z" style="fill:#4273DF"></path><path d="M722.48,330.92c65.89-140.36-30.7-302.81-185.87-315.39a497.39,497.39,0,0,0-54.33-1.4c-157.58,4.45-207.87,52.27-247,60.05S109,50.83,65.41,83.08-31.23,263,64.59,368.75s290.39-4,378.61,6.67S594,428.94,658.87,401.13C683.17,390.71,705.91,366.21,722.48,330.92Z" style="fill:#fff;opacity:0.7000000000000001"></path></g><g id="freepik--Clouds--inject-10"><g style="opacity:0.30000000000000004"><path d="M704.32,204.8c-1.7-2-3.09-4.34-4.44-6-4.46-5.41-10.88-12.57-19.11-13.46-12-1.29-15,12.1-18.51,12.53s-7-3.88-11.51-2.16-5.51,6.92-7.51,8.21-7.51-2.16-9.51-.43-1.5,7.35-4.5,8.21-7-2.59-10.51.43-6,4.76-6,4.76H726.82s-3-9.08-7-10.81c-3.12-1.34-4.27,1.58-6.63,2.26C709.33,209.46,706.56,207.44,704.32,204.8Z" style="fill:none;stroke:#000;stroke-miterlimit:10"></path><path d="M373.37,31.33c-1-1.23-1.91-2.67-2.74-3.68-2.75-3.34-6.71-7.76-11.79-8.31-7.41-.8-9.26,7.47-11.43,7.73s-4.32-2.4-7.1-1.33-3.4,4.27-4.63,5.07-4.64-1.34-5.87-.27-.93,4.53-2.78,5.07-4.32-1.6-6.49.26-3.7,2.94-3.7,2.94h70.41s-1.85-5.6-4.32-6.67c-1.92-.83-2.63,1-4.09,1.39C376.46,34.21,374.76,33,373.37,31.33Z" style="fill:none;stroke:#000;stroke-miterlimit:10"></path><path d="M72.71,198c-1-1.23-1.9-2.68-2.74-3.69-2.75-3.34-6.71-7.76-11.79-8.31-7.41-.8-9.26,7.47-11.42,7.74s-4.33-2.4-7.11-1.34-3.39,4.27-4.63,5.07-4.63-1.33-5.87-.27-.92,4.54-2.78,5.07-4.32-1.6-6.48.27-3.71,2.93-3.71,2.93H86.6s-1.85-5.6-4.33-6.67c-1.92-.83-2.63,1-4.09,1.4C75.81,200.9,74.1,199.65,72.71,198Z" style="fill:none;stroke:#000;stroke-miterlimit:10"></path><path d="M263,223.15c-1-1.23-1.91-2.68-2.74-3.69-2.75-3.34-6.71-7.75-11.79-8.3-7.41-.8-9.26,7.46-11.42,7.73s-4.33-2.4-7.11-1.33-3.4,4.26-4.63,5.06-4.63-1.33-5.87-.26-.93,4.53-2.78,5.06-4.32-1.6-6.48.27-3.71,2.93-3.71,2.93h70.42s-1.86-5.6-4.33-6.66c-1.92-.83-2.63,1-4.09,1.39C266.12,226,264.41,224.78,263,223.15Z" style="fill:none;stroke:#000;stroke-miterlimit:10"></path></g></g><g id="freepik--city--inject-10"><g style="opacity:0.30000000000000004"><polyline points="735.88 304.72 735.88 272.24 707.36 272.24 707.36 238.96 689.13 238.96 689.13 291.2 676.46 291.2 676.46 261.94 635.25 261.94 635.25 242.92 606.73 242.92 606.73 260.35 594.65 260.35 594.65 227.27 573.79 209.25 550.08 209.25 530.67 228.66 530.67 250.05 486.3 250.05 486.3 207.27 451.43 207.27 451.43 278.58 438.75 278.58 438.75 223.11 425.29 223.11 425.29 254.01 403.1 254.01 403.1 245.3 411.81 245.3 411.81 233.41 357.14 233.41 357.14 273.03 326.24 273.03 326.24 219.15 314.36 219.15 314.36 210.44 285.04 210.44 285.04 249.26 269.19 249.26 269.19 304.72 200.26 304.72 200.26 238.96 169.36 238.96 169.36 252.43 155.1 252.43 155.1 210.83 129.35 210.83 116.27 223.91 116.27 256.39 98.84 256.39 98.84 284.12 74.28 284.12 74.28 249.26 44.96 249.26 44.96 308.69 17.23 308.69" style="fill:none;stroke:#000;stroke-miterlimit:10"></polyline><line x1="119.76" y1="226.25" x2="128.47" y2="226.25" style="fill:none;stroke:#000;stroke-miterlimit:10"></line><line x1="119.76" y1="232.79" x2="128.47" y2="232.79" style="fill:none;stroke:#000;stroke-miterlimit:10"></line><line x1="119.76" y1="239.33" x2="128.47" y2="239.33" style="fill:none;stroke:#000;stroke-miterlimit:10"></line><line x1="119.76" y1="245.86" x2="128.47" y2="245.86" style="fill:none;stroke:#000;stroke-miterlimit:10"></line><line x1="119.76" y1="252.4" x2="128.47" y2="252.4" style="fill:none;stroke:#000;stroke-miterlimit:10"></line><line x1="119.76" y1="258.93" x2="128.47" y2="258.93" style="fill:none;stroke:#000;stroke-miterlimit:10"></line><line x1="119.76" y1="265.47" x2="128.47" y2="265.47" style="fill:none;stroke:#000;stroke-miterlimit:10"></line><line x1="119.76" y1="272.01" x2="128.47" y2="272.01" style="fill:none;stroke:#000;stroke-miterlimit:10"></line><line x1="119.76" y1="278.54" x2="128.47" y2="278.54" style="fill:none;stroke:#000;stroke-miterlimit:10"></line><line x1="119.76" y1="285.08" x2="128.47" y2="285.08" style="fill:none;stroke:#000;stroke-miterlimit:10"></line><line x1="132.83" y1="214.49" x2="132.83" y2="294.66" style="fill:none;stroke:#000;stroke-miterlimit:10"></line><polyline points="101.89 290.74 101.89 311.22 146.34 311.22 146.34 324.73 187.73 324.73" style="fill:none;stroke:#000;stroke-miterlimit:10"></polyline><line x1="169.87" y1="256.76" x2="169.87" y2="311.66" style="fill:none;stroke:#000;stroke-miterlimit:10"></line><line x1="176.84" y1="241.94" x2="176.84" y2="312.53" style="fill:none;stroke:#000;stroke-miterlimit:10"></line><line x1="183.37" y1="241.94" x2="183.37" y2="312.53" style="fill:none;stroke:#000;stroke-miterlimit:10"></line><line x1="189.91" y1="241.94" x2="189.91" y2="312.53" style="fill:none;stroke:#000;stroke-miterlimit:10"></line><line x1="196.45" y1="241.94" x2="196.45" y2="312.53" style="fill:none;stroke:#000;stroke-miterlimit:10"></line><line x1="155.05" y1="257.63" x2="155.05" y2="310.35" style="fill:none;stroke:#000;stroke-miterlimit:10"></line><rect x="290.13" y="221.46" width="5.23" height="5.23" style="fill:none;stroke:#000;stroke-miterlimit:10"></rect><rect x="290.13" y="231.92" width="5.23" height="5.23" style="fill:none;stroke:#000;stroke-miterlimit:10"></rect><rect x="290.13" y="242.38" width="5.23" height="5.23" style="fill:none;stroke:#000;stroke-miterlimit:10"></rect><rect x="290.13" y="252.83" width="5.23" height="5.23" style="fill:none;stroke:#000;stroke-miterlimit:10"></rect><rect x="290.13" y="263.29" width="5.23" height="5.23" style="fill:none;stroke:#000;stroke-miterlimit:10"></rect><rect x="290.13" y="273.75" width="5.23" height="5.23" style="fill:none;stroke:#000;stroke-miterlimit:10"></rect><rect x="290.13" y="284.21" width="5.23" height="5.23" style="fill:none;stroke:#000;stroke-miterlimit:10"></rect><rect x="290.13" y="294.66" width="5.23" height="5.23" style="fill:none;stroke:#000;stroke-miterlimit:10"></rect><rect x="290.13" y="305.12" width="5.23" height="5.23" style="fill:none;stroke:#000;stroke-miterlimit:10"></rect><rect x="290.13" y="315.58" width="5.23" height="5.23" style="fill:none;stroke:#000;stroke-miterlimit:10"></rect><rect x="290.13" y="326.04" width="5.23" height="5.23" style="fill:none;stroke:#000;stroke-miterlimit:10"></rect><rect x="299.72" y="221.46" width="5.23" height="5.23" style="fill:none;stroke:#000;stroke-miterlimit:10"></rect><rect x="299.72" y="231.92" width="5.23" height="5.23" style="fill:none;stroke:#000;stroke-miterlimit:10"></rect><rect x="299.72" y="242.38" width="5.23" height="5.23" style="fill:none;stroke:#000;stroke-miterlimit:10"></rect><rect x="299.72" y="252.83" width="5.23" height="5.23" style="fill:none;stroke:#000;stroke-miterlimit:10"></rect><rect x="299.72" y="263.29" width="5.23" height="5.23" style="fill:none;stroke:#000;stroke-miterlimit:10"></rect><rect x="299.72" y="273.75" width="5.23" height="5.23" style="fill:none;stroke:#000;stroke-miterlimit:10"></rect><rect x="299.72" y="284.21" width="5.23" height="5.23" style="fill:none;stroke:#000;stroke-miterlimit:10"></rect><rect x="299.72" y="294.66" width="5.23" height="5.23" style="fill:none;stroke:#000;stroke-miterlimit:10"></rect><rect x="299.72" y="305.12" width="5.23" height="5.23" style="fill:none;stroke:#000;stroke-miterlimit:10"></rect><rect x="299.72" y="315.58" width="5.23" height="5.23" style="fill:none;stroke:#000;stroke-miterlimit:10"></rect><rect x="299.72" y="326.04" width="5.23" height="5.23" style="fill:none;stroke:#000;stroke-miterlimit:10"></rect><rect x="309.3" y="221.46" width="5.23" height="5.23" style="fill:none;stroke:#000;stroke-miterlimit:10"></rect><rect x="309.3" y="231.92" width="5.23" height="5.23" style="fill:none;stroke:#000;stroke-miterlimit:10"></rect><rect x="309.3" y="242.38" width="5.23" height="5.23" style="fill:none;stroke:#000;stroke-miterlimit:10"></rect><rect x="309.3" y="252.83" width="5.23" height="5.23" style="fill:none;stroke:#000;stroke-miterlimit:10"></rect><rect x="309.3" y="263.29" width="5.23" height="5.23" style="fill:none;stroke:#000;stroke-miterlimit:10"></rect><rect x="309.3" y="273.75" width="5.23" height="5.23" style="fill:none;stroke:#000;stroke-miterlimit:10"></rect><rect x="309.3" y="284.21" width="5.23" height="5.23" style="fill:none;stroke:#000;stroke-miterlimit:10"></rect><rect x="309.3" y="294.66" width="5.23" height="5.23" style="fill:none;stroke:#000;stroke-miterlimit:10"></rect><rect x="309.3" y="305.12" width="5.23" height="5.23" style="fill:none;stroke:#000;stroke-miterlimit:10"></rect><rect x="309.3" y="315.58" width="5.23" height="5.23" style="fill:none;stroke:#000;stroke-miterlimit:10"></rect><rect x="309.3" y="326.04" width="5.23" height="5.23" style="fill:none;stroke:#000;stroke-miterlimit:10"></rect><rect x="476.19" y="221.46" width="5.23" height="5.23" style="fill:none;stroke:#000;stroke-miterlimit:10"></rect><rect x="476.19" y="231.92" width="5.23" height="5.23" style="fill:none;stroke:#000;stroke-miterlimit:10"></rect><rect x="476.19" y="242.38" width="5.23" height="5.23" style="fill:none;stroke:#000;stroke-miterlimit:10"></rect><rect x="476.19" y="252.83" width="5.23" height="5.23" style="fill:none;stroke:#000;stroke-miterlimit:10"></rect><rect x="476.19" y="263.29" width="5.23" height="5.23" style="fill:none;stroke:#000;stroke-miterlimit:10"></rect><rect x="476.19" y="273.75" width="5.23" height="5.23" style="fill:none;stroke:#000;stroke-miterlimit:10"></rect><rect x="476.19" y="284.21" width="5.23" height="5.23" style="fill:none;stroke:#000;stroke-miterlimit:10"></rect><rect x="476.19" y="294.66" width="5.23" height="5.23" style="fill:none;stroke:#000;stroke-miterlimit:10"></rect><rect x="476.19" y="305.12" width="5.23" height="5.23" style="fill:none;stroke:#000;stroke-miterlimit:10"></rect><rect x="476.19" y="315.58" width="5.23" height="5.23" style="fill:none;stroke:#000;stroke-miterlimit:10"></rect><rect x="476.19" y="326.04" width="5.23" height="5.23" style="fill:none;stroke:#000;stroke-miterlimit:10"></rect><rect x="453.97" y="221.03" width="13.51" height="111.55" style="fill:none;stroke:#000;stroke-miterlimit:10"></rect><line x1="536.75" y1="228.87" x2="585.56" y2="228.87" style="fill:none;stroke:#000;stroke-miterlimit:10"></line><line x1="536.75" y1="236.71" x2="585.56" y2="236.71" style="fill:none;stroke:#000;stroke-miterlimit:10"></line><line x1="536.75" y1="244.56" x2="585.56" y2="244.56" style="fill:none;stroke:#000;stroke-miterlimit:10"></line><line x1="536.75" y1="252.4" x2="585.56" y2="252.4" style="fill:none;stroke:#000;stroke-miterlimit:10"></line><line x1="536.75" y1="260.24" x2="585.56" y2="260.24" style="fill:none;stroke:#000;stroke-miterlimit:10"></line><line x1="536.75" y1="268.08" x2="585.56" y2="268.08" style="fill:none;stroke:#000;stroke-miterlimit:10"></line><line x1="536.75" y1="275.93" x2="585.56" y2="275.93" style="fill:none;stroke:#000;stroke-miterlimit:10"></line><line x1="536.75" y1="283.77" x2="585.56" y2="283.77" style="fill:none;stroke:#000;stroke-miterlimit:10"></line><line x1="536.75" y1="291.61" x2="585.56" y2="291.61" style="fill:none;stroke:#000;stroke-miterlimit:10"></line><line x1="536.75" y1="299.46" x2="585.56" y2="299.46" style="fill:none;stroke:#000;stroke-miterlimit:10"></line><line x1="536.75" y1="307.3" x2="585.56" y2="307.3" style="fill:none;stroke:#000;stroke-miterlimit:10"></line><line x1="536.75" y1="315.14" x2="585.56" y2="315.14" style="fill:none;stroke:#000;stroke-miterlimit:10"></line><line x1="536.75" y1="322.99" x2="585.56" y2="322.99" style="fill:none;stroke:#000;stroke-miterlimit:10"></line><line x1="536.75" y1="330.83" x2="585.56" y2="330.83" style="fill:none;stroke:#000;stroke-miterlimit:10"></line><line x1="536.75" y1="338.67" x2="585.56" y2="338.67" style="fill:none;stroke:#000;stroke-miterlimit:10"></line><polyline points="402.99 311.66 452.22 311.66 452.22 322.12 443.07 322.12 443.07 338.67 481.85 338.67" style="fill:none;stroke:#000;stroke-miterlimit:10"></polyline><polyline points="646.56 299.89 607.78 299.89 607.78 346.95 600.37 346.95 600.37 304.25 593.4 304.25" style="fill:none;stroke:#000;stroke-miterlimit:10"></polyline><polyline points="691.44 305.99 691.44 320.37 718.46 320.37 718.46 308.61 742.42 308.61" style="fill:none;stroke:#000;stroke-miterlimit:10"></polyline><line x1="135.78" y1="330.03" x2="106.18" y2="330.03" style="fill:none;stroke:#000;stroke-miterlimit:10"></line><polyline points="13.78 330.03 38.9 330.03 38.9 356.94" style="fill:none;stroke:#000;stroke-miterlimit:10"></polyline></g></g><g id="freepik--Floor--inject-10"><polygon points="666.93 367.05 67.69 367.05 -0.8 386.28 -0.8 500.51 749.94 500.51 749.94 387.13 666.93 367.05" style="fill:#6e6e6e"></polygon><path d="M21.28,499.63l147.36-84.46,34.06-15.66,5.35-2.46,9.95-4.58,4.65-2.13,24.49-11.27v-2.32l-5.73,2.56H216l4.62-3.52-5.57.44-11.36,8.25-2.57,1.86-5.5,4-2.94,2.13-6.31,4.58-3.39,2.46-21.58,15.66L8.77,499.63ZM213.79,381h23.93l-7.86,3.52H209.17Zm-7.07,5.38h19l-9,4H201.48Zm-8,6.13H212l-10.25,4.58h-9.05Zm-9.25,7h6.78l-16.4,7.33Z" style="fill:#fff"></path><path d="M355.71,386.34l1.54,4,.82,2.13,1.76,4.58.95,2.46,6.06,15.66-3.65,84.46H375.7l-1.59-84.46,6.44-15.66,1-2.46,1.87-4.58.89-2.13,5.79-14.11-4.8-.44-1.67,3.52H358.19l-1.59-3.52-4.8.44,3.18,8.25Zm14.87,20.5-3.31-7.33h6.79Zm4.64-9.79h-9.05l-2.06-4.58h13.28Zm3.18-6.71H363.15l-1.8-4H380.3Zm4.45-9.38-1.66,3.52H360.51L358.93,381Z" style="fill:#fff"></path><path d="M511.21,386.34l8.68,4,4.64,2.13,10,4.58,5.35,2.46,34.06,15.66,147.35,84.46h12.51L581.16,415.17l-21.57-15.66-3.38-2.46-6.32-4.58L547,390.34l-19.43-14.11-5.59-.44,4.63,3.52H501.12l-7.25-3.23v2.29l13.28,6.11Zm41.89,13.17,9.62,7.33-16.4-7.33Zm-3.23-2.46h-9l-10.25-4.58h13.28Zm-8.82-6.71H525.8l-8.95-4h19ZM528.74,381l4.62,3.52H512.67L504.82,381Z" style="fill:#fff"></path></g><g id="freepik--toll-booth--inject-10"><line x1="80.41" y1="161.81" x2="653.46" y2="161.81" style="fill:#fff;stroke:#263238;stroke-miterlimit:10"></line><rect x="245.81" y="150.1" width="107.58" height="48.3" rx="8.78" style="fill:#4273DF;stroke:#263238;stroke-miterlimit:10"></rect><rect x="99.44" y="150.1" width="107.58" height="48.3" rx="8.78" style="fill:#4273DF;stroke:#263238;stroke-miterlimit:10"></rect><rect x="389.26" y="150.1" width="107.58" height="48.3" rx="8.78" style="fill:#4273DF;stroke:#263238;stroke-miterlimit:10"></rect><rect x="532.7" y="150.1" width="107.58" height="48.3" rx="8.78" style="fill:#4273DF;stroke:#263238;stroke-miterlimit:10"></rect><line x1="115.47" y1="170.55" x2="190.26" y2="170.55" style="fill:none;stroke:#263238;stroke-miterlimit:10"></line><line x1="115.47" y1="179.67" x2="190.26" y2="179.67" style="fill:none;stroke:#263238;stroke-miterlimit:10"></line><line x1="262.32" y1="170.55" x2="337.12" y2="170.55" style="fill:none;stroke:#263238;stroke-miterlimit:10"></line><line x1="262.32" y1="179.67" x2="337.12" y2="179.67" style="fill:none;stroke:#263238;stroke-miterlimit:10"></line><line x1="404.61" y1="170.55" x2="479.4" y2="170.55" style="fill:none;stroke:#263238;stroke-miterlimit:10"></line><line x1="404.61" y1="179.67" x2="479.4" y2="179.67" style="fill:none;stroke:#263238;stroke-miterlimit:10"></line><line x1="547.81" y1="170.55" x2="622.61" y2="170.55" style="fill:none;stroke:#263238;stroke-miterlimit:10"></line><line x1="547.81" y1="179.67" x2="622.61" y2="179.67" style="fill:none;stroke:#263238;stroke-miterlimit:10"></line><rect x="202.64" y="263.33" width="51.82" height="117.21" style="fill:#fff;stroke:#263238;stroke-miterlimit:10"></rect><rect x="202.64" y="321.19" width="51.82" height="59.35" style="fill:#4273DF;stroke:#263238;stroke-miterlimit:10"></rect><rect x="202.64" y="263.33" width="51.82" height="7.47" style="fill:#4273DF;stroke:#263238;stroke-miterlimit:10"></rect><rect x="344.93" y="263.33" width="51.82" height="117.21" style="fill:#fff;stroke:#263238;stroke-miterlimit:10"></rect><rect x="344.93" y="321.19" width="51.82" height="59.35" style="fill:#4273DF;stroke:#263238;stroke-miterlimit:10"></rect><rect x="344.93" y="263.33" width="51.82" height="7.47" style="fill:#4273DF;stroke:#263238;stroke-miterlimit:10"></rect><rect x="218.36" y="130.41" width="17.91" height="227.91" style="fill:#263238;stroke:#263238;stroke-miterlimit:10"></rect><rect x="208.16" y="329.54" width="40.25" height="51.16" style="fill:#4273DF;stroke:#263238;stroke-miterlimit:10"></rect><polygon points="227.84 363.93 214.31 380.7 220.74 380.7 234.94 380.7 241.36 380.7 227.84 363.93" style="fill:#263238"></polygon><polygon points="248.42 357.59 248.42 349.63 232.22 329.54 223.45 329.54 208.16 348.5 208.16 356.46 227.84 332.06 248.42 357.59" style="fill:#263238"></polygon><polygon points="208.16 368.42 208.16 376.38 227.84 351.98 248.42 377.51 248.42 369.54 227.84 344.01 208.16 368.42" style="fill:#263238"></polygon><rect x="361.62" y="130.41" width="17.91" height="227.91" style="fill:#263238;stroke:#263238;stroke-miterlimit:10"></rect><rect x="350.44" y="329.54" width="40.25" height="51.16" style="fill:#4273DF;stroke:#263238;stroke-miterlimit:10"></rect><polygon points="370.12 363.93 356.6 380.7 363.02 380.7 377.21 380.7 383.64 380.7 370.12 363.93" style="fill:#263238"></polygon><polygon points="390.7 357.59 390.7 349.63 374.5 329.54 365.73 329.54 350.44 348.5 350.44 356.46 370.12 332.06 390.7 357.59" style="fill:#263238"></polygon><polygon points="350.44 368.42 350.44 376.38 370.12 351.98 390.7 377.51 390.7 369.54 370.12 344.01 350.44 368.42" style="fill:#263238"></polygon><rect x="488.13" y="263.33" width="51.82" height="117.21" style="fill:#fff;stroke:#263238;stroke-miterlimit:10"></rect><rect x="488.13" y="321.19" width="51.82" height="59.35" style="fill:#4273DF;stroke:#263238;stroke-miterlimit:10"></rect><rect x="488.13" y="263.33" width="51.82" height="7.47" style="fill:#4273DF;stroke:#263238;stroke-miterlimit:10"></rect><rect x="504.88" y="130.41" width="17.91" height="227.91" style="fill:#263238;stroke:#263238;stroke-miterlimit:10"></rect><rect x="493.7" y="329.54" width="40.25" height="51.16" style="fill:#4273DF;stroke:#263238;stroke-miterlimit:10"></rect><polygon points="513.38 363.93 499.85 380.7 506.28 380.7 520.47 380.7 526.9 380.7 513.38 363.93" style="fill:#263238"></polygon><polygon points="533.96 357.59 533.96 349.63 517.76 329.54 508.99 329.54 493.7 348.5 493.7 356.46 513.38 332.06 533.96 357.59" style="fill:#263238"></polygon><polygon points="493.7 368.42 493.7 376.38 513.38 351.98 533.96 377.51 533.96 369.54 513.38 344.01 493.7 368.42" style="fill:#263238"></polygon><rect x="67.41" y="130.41" width="17.91" height="227.91" style="fill:#263238;stroke:#263238;stroke-miterlimit:10"></rect><rect x="57.22" y="329.54" width="40.25" height="51.16" style="fill:#4273DF;stroke:#263238;stroke-miterlimit:10"></rect><polygon points="76.89 363.93 63.37 380.7 69.79 380.7 83.99 380.7 90.41 380.7 76.89 363.93" style="fill:#263238"></polygon><polygon points="97.47 357.59 97.47 349.63 81.28 329.54 72.51 329.54 57.22 348.5 57.22 356.46 76.89 332.06 97.47 357.59" style="fill:#263238"></polygon><polygon points="57.22 368.42 57.22 376.38 76.89 351.98 97.47 377.51 97.47 369.54 76.89 344.01 57.22 368.42" style="fill:#263238"></polygon><rect x="648.8" y="130.41" width="17.91" height="227.91" style="fill:#263238;stroke:#263238;stroke-miterlimit:10"></rect><rect x="638.61" y="329.54" width="40.25" height="51.16" style="fill:#4273DF;stroke:#263238;stroke-miterlimit:10"></rect><polygon points="658.28 363.93 644.76 380.7 651.18 380.7 665.38 380.7 671.8 380.7 658.28 363.93" style="fill:#263238"></polygon><polygon points="678.86 357.59 678.86 349.63 662.67 329.54 653.89 329.54 638.61 348.5 638.61 356.46 658.28 332.06 678.86 357.59" style="fill:#263238"></polygon><polygon points="638.61 368.42 638.61 376.38 658.28 351.98 678.86 377.51 678.86 369.54 658.28 344.01 638.61 368.42" style="fill:#263238"></polygon><rect x="56.68" y="81.86" width="621.26" height="64.52" style="fill:#adadad;stroke:#263238;stroke-miterlimit:10"></rect><rect x="47.97" y="81.86" width="638.67" height="30.92" style="fill:#263238;stroke:#263238;stroke-miterlimit:10"></rect><rect x="128.59" y="121.14" width="34.65" height="15.53" style="fill:#263238;stroke:#263238;stroke-miterlimit:10"></rect><path d="M139.62,128.9a3.38,3.38,0,1,1-3.38-3.38A3.38,3.38,0,0,1,139.62,128.9Z" style="fill:#fff"></path><path d="M149.23,128.9a3.38,3.38,0,1,1-3.38-3.38A3.38,3.38,0,0,1,149.23,128.9Z" style="fill:#fff"></path><path d="M158.85,128.9a3.38,3.38,0,1,1-3.38-3.38A3.38,3.38,0,0,1,158.85,128.9Z" style="fill:#4273DF"></path><rect x="160.93" y="118.89" width="20.01" height="20.01" style="fill:#4273DF;stroke:#263238;stroke-miterlimit:10"></rect><rect x="91.12" y="50.7" width="127.29" height="58.81" style="fill:#fff;stroke:#263238;stroke-miterlimit:10"></rect><rect x="91.12" y="83.07" width="127.29" height="26.44" style="fill:#4273DF;stroke:#263238;stroke-miterlimit:10"></rect><polygon points="158.92 94.16 158.92 86.78 150.61 86.78 150.61 94.16 141.48 94.16 154.76 104.55 168.04 94.16 158.92 94.16" style="fill:#fff;stroke:#263238;stroke-miterlimit:10"></polygon><rect x="272.09" y="121.14" width="34.65" height="15.53" style="fill:#263238;stroke:#263238;stroke-miterlimit:10"></rect><path d="M283.12,128.9a3.38,3.38,0,1,1-3.38-3.38A3.38,3.38,0,0,1,283.12,128.9Z" style="fill:#a3a3a3"></path><path d="M292.74,128.9a3.38,3.38,0,1,1-3.38-3.38A3.38,3.38,0,0,1,292.74,128.9Z" style="fill:#fff"></path><path d="M302.35,128.9a3.38,3.38,0,1,1-3.38-3.38A3.38,3.38,0,0,1,302.35,128.9Z" style="fill:#fff"></path><rect x="304.43" y="118.89" width="20.01" height="20.01" style="fill:#4273DF;stroke:#263238;stroke-miterlimit:10"></rect><rect x="234.62" y="50.7" width="127.29" height="58.81" style="fill:#fff;stroke:#263238;stroke-miterlimit:10"></rect><rect x="234.62" y="83.68" width="127.29" height="25.83" style="fill:#4273DF;stroke:#263238;stroke-miterlimit:10"></rect><polygon points="302.42 94.16 302.42 86.78 294.11 86.78 294.11 94.16 284.99 94.16 298.27 104.55 311.55 94.16 302.42 94.16" style="fill:#fff;stroke:#263238;stroke-miterlimit:10"></polygon><rect x="415.59" y="121.14" width="34.65" height="15.53" style="fill:#263238;stroke:#263238;stroke-miterlimit:10"></rect><path d="M426.62,128.9a3.38,3.38,0,1,1-3.38-3.38A3.38,3.38,0,0,1,426.62,128.9Z" style="fill:#fff"></path><path d="M436.24,128.9a3.38,3.38,0,1,1-3.38-3.38A3.38,3.38,0,0,1,436.24,128.9Z" style="fill:#fff"></path><path d="M445.86,128.9a3.38,3.38,0,1,1-3.38-3.38A3.38,3.38,0,0,1,445.86,128.9Z" style="fill:#4273DF"></path><rect x="447.93" y="118.89" width="20.01" height="20.01" style="fill:#4273DF;stroke:#263238;stroke-miterlimit:10"></rect><rect x="378.12" y="50.7" width="127.29" height="58.81" style="fill:#fff;stroke:#263238;stroke-miterlimit:10"></rect><rect x="378.12" y="83.07" width="127.29" height="26.44" style="fill:#4273DF;stroke:#263238;stroke-miterlimit:10"></rect><polygon points="445.92 94.16 445.92 86.78 437.62 86.78 437.62 94.16 428.49 94.16 441.77 104.55 455.05 94.16 445.92 94.16" style="fill:#fff;stroke:#263238;stroke-miterlimit:10"></polygon><rect x="559.1" y="121.14" width="34.65" height="15.53" style="fill:#263238;stroke:#263238;stroke-miterlimit:10"></rect><path d="M570.13,128.9a3.38,3.38,0,1,1-3.38-3.38A3.38,3.38,0,0,1,570.13,128.9Z" style="fill:#fff"></path><path d="M579.74,128.9a3.38,3.38,0,1,1-3.38-3.38A3.38,3.38,0,0,1,579.74,128.9Z" style="fill:#a3a3a3"></path><path d="M589.36,128.9a3.38,3.38,0,1,1-3.38-3.38A3.38,3.38,0,0,1,589.36,128.9Z" style="fill:#fff"></path><rect x="591.44" y="118.89" width="20.01" height="20.01" style="fill:#4273DF;stroke:#263238;stroke-miterlimit:10"></rect><rect x="521.63" y="50.7" width="127.29" height="58.81" style="fill:#fff;stroke:#263238;stroke-miterlimit:10"></rect><rect x="521.63" y="83.68" width="127.29" height="25.83" style="fill:#4273DF;stroke:#263238;stroke-miterlimit:10"></rect><polygon points="589.43 94.16 589.43 86.78 581.12 86.78 581.12 94.16 571.99 94.16 585.27 104.55 598.55 94.16 589.43 94.16" style="fill:#fff;stroke:#263238;stroke-miterlimit:10"></polygon><path d="M119.16,78.55a4.59,4.59,0,0,1-2.63-.66,3.44,3.44,0,0,1-1.32-1.8,8.1,8.1,0,0,1-.38-2.63V68a8.51,8.51,0,0,1,.38-2.72,3.22,3.22,0,0,1,1.32-1.77,4.76,4.76,0,0,1,2.63-.62,4.89,4.89,0,0,1,2.48.53A3,3,0,0,1,122.92,65a6.61,6.61,0,0,1,.37,2.32v1.28h-2.67V67.26a10.23,10.23,0,0,0-.07-1.17,1.41,1.41,0,0,0-.36-.84,1.37,1.37,0,0,0-1-.31,1.43,1.43,0,0,0-1,.33,1.66,1.66,0,0,0-.43.89,7.89,7.89,0,0,0-.09,1.25v6.64a5.69,5.69,0,0,0,.13,1.36,1.43,1.43,0,0,0,.48.81,1.45,1.45,0,0,0,1,.28,1.25,1.25,0,0,0,1-.33,1.58,1.58,0,0,0,.37-.88,8.92,8.92,0,0,0,.08-1.22V72.69h2.67v1.23a7.38,7.38,0,0,1-.36,2.4A3.07,3.07,0,0,1,121.68,78,4.6,4.6,0,0,1,119.16,78.55Z" style="fill:#263238"></path><path d="M124.46,78.35l3.05-15.27h3l3.06,15.27H131l-.6-3.53H127.7l-.62,3.53Zm3.53-5.3h2.07l-1-6.41Z" style="fill:#263238"></path><path d="M138.84,78.55a4.63,4.63,0,0,1-2.3-.53,3.41,3.41,0,0,1-1.39-1.58,6.68,6.68,0,0,1-.53-2.54l2.4-.47a7,7,0,0,0,.21,1.56,2.28,2.28,0,0,0,.55,1.05,1.32,1.32,0,0,0,1,.36,1.09,1.09,0,0,0,1-.4,1.74,1.74,0,0,0,.28-1,2.81,2.81,0,0,0-.45-1.64,6.78,6.78,0,0,0-1.21-1.28l-1.92-1.7a5.7,5.7,0,0,1-1.29-1.55,4.29,4.29,0,0,1-.48-2.12,3.59,3.59,0,0,1,1.06-2.79,4,4,0,0,1,2.88-1,4.27,4.27,0,0,1,1.79.33,2.8,2.8,0,0,1,1.14.91,4.19,4.19,0,0,1,.63,1.33,7.92,7.92,0,0,1,.27,1.57l-2.38.42a7.57,7.57,0,0,0-.16-1.28,1.81,1.81,0,0,0-.43-.89,1.25,1.25,0,0,0-.92-.32,1.16,1.16,0,0,0-1,.41,1.53,1.53,0,0,0-.33,1,2.38,2.38,0,0,0,.32,1.28,5,5,0,0,0,.93,1l1.9,1.68A8,8,0,0,1,142,72.23a4.71,4.71,0,0,1,.67,2.57,3.85,3.85,0,0,1-.48,1.94,3.43,3.43,0,0,1-1.34,1.33A4,4,0,0,1,138.84,78.55Z" style="fill:#263238"></path><path d="M144.2,78.35V63.08H147v6.39h3.11V63.08h2.79V78.35h-2.79v-6.9H147v6.9Z" style="fill:#263238"></path><path d="M163.93,78.55a4.83,4.83,0,0,1-2.58-.6A3.36,3.36,0,0,1,160,76.22a8,8,0,0,1-.41-2.68V67.83a7.69,7.69,0,0,1,.41-2.65,3.27,3.27,0,0,1,1.38-1.69,6.1,6.1,0,0,1,5.19,0,3.27,3.27,0,0,1,1.38,1.69,7.44,7.44,0,0,1,.42,2.65v5.73a7.56,7.56,0,0,1-.42,2.65,3.44,3.44,0,0,1-1.38,1.73A4.76,4.76,0,0,1,163.93,78.55Zm0-2a1.29,1.29,0,0,0,1.47-1.13,5.2,5.2,0,0,0,.12-1.15v-7A5,5,0,0,0,165.4,66a1.46,1.46,0,0,0-.44-.81,1.54,1.54,0,0,0-1-.29,1.29,1.29,0,0,0-1.45,1.1,5.68,5.68,0,0,0-.11,1.15v7a5.93,5.93,0,0,0,.1,1.15,1.49,1.49,0,0,0,.44.83A1.51,1.51,0,0,0,163.93,76.5Z" style="fill:#263238"></path><path d="M170.4,78.35V63.08h1.94l3.71,8.71V63.08h2.3V78.35h-1.84l-3.74-9.13v9.13Z" style="fill:#263238"></path><path d="M180.67,78.35V63.08h2.79V76.42h3.7v1.93Z" style="fill:#263238"></path><path d="M189.79,78.35V72.52l-3.09-9.44h2.6l1.89,6,1.77-6h2.55l-3.06,9.44v5.83Z" style="fill:#263238"></path><path d="M266.61,78.35V63.08h1.94l3.71,8.71V63.08h2.3V78.35h-1.84L269,69.22v9.13Z" style="fill:#263238"></path><path d="M281,78.55a4.83,4.83,0,0,1-2.58-.6,3.36,3.36,0,0,1-1.38-1.73,7.74,7.74,0,0,1-.41-2.68V67.83a7.45,7.45,0,0,1,.41-2.65,3.27,3.27,0,0,1,1.38-1.69,4.93,4.93,0,0,1,2.58-.58,5,5,0,0,1,2.61.58A3.36,3.36,0,0,1,285,65.18a7.44,7.44,0,0,1,.42,2.65v5.73a7.56,7.56,0,0,1-.42,2.65,3.55,3.55,0,0,1-1.38,1.73A4.8,4.8,0,0,1,281,78.55Zm0-2a1.51,1.51,0,0,0,1-.3,1.55,1.55,0,0,0,.44-.83,5.91,5.91,0,0,0,.11-1.15v-7A5.68,5.68,0,0,0,282.5,66a1.52,1.52,0,0,0-.44-.81,1.56,1.56,0,0,0-1-.29,1.53,1.53,0,0,0-1,.29,1.41,1.41,0,0,0-.45.81,5,5,0,0,0-.12,1.15v7a5.91,5.91,0,0,0,.11,1.15,1.43,1.43,0,0,0,.44.83A1.51,1.51,0,0,0,281,76.5Z" style="fill:#263238"></path><path d="M296.18,78.55a4.59,4.59,0,0,1-2.63-.66,3.44,3.44,0,0,1-1.32-1.8,8.1,8.1,0,0,1-.38-2.63V68a8.51,8.51,0,0,1,.38-2.72,3.22,3.22,0,0,1,1.32-1.77,4.76,4.76,0,0,1,2.63-.62,4.89,4.89,0,0,1,2.48.53A3,3,0,0,1,299.94,65a6.61,6.61,0,0,1,.37,2.32v1.28h-2.67V67.26a10.23,10.23,0,0,0-.07-1.17,1.41,1.41,0,0,0-.36-.84,1.37,1.37,0,0,0-1-.31,1.43,1.43,0,0,0-1,.33,1.66,1.66,0,0,0-.43.89,7.89,7.89,0,0,0-.09,1.25v6.64a5.69,5.69,0,0,0,.13,1.36,1.43,1.43,0,0,0,.48.81,1.45,1.45,0,0,0,.95.28,1.25,1.25,0,0,0,1-.33,1.58,1.58,0,0,0,.37-.88,8.92,8.92,0,0,0,.08-1.22V72.69h2.67v1.23a7.38,7.38,0,0,1-.36,2.4A3.07,3.07,0,0,1,298.7,78,4.6,4.6,0,0,1,296.18,78.55Z" style="fill:#263238"></path><path d="M301.48,78.35l3-15.27h3l3.06,15.27H308l-.6-3.53h-2.66l-.62,3.53Zm3.53-5.3h2.07l-1-6.41Z" style="fill:#263238"></path><path d="M315.86,78.55a4.63,4.63,0,0,1-2.3-.53,3.41,3.41,0,0,1-1.39-1.58,6.68,6.68,0,0,1-.53-2.54l2.39-.47a7.61,7.61,0,0,0,.22,1.56A2.28,2.28,0,0,0,314.8,76a1.32,1.32,0,0,0,1,.36,1.09,1.09,0,0,0,1-.4,1.74,1.74,0,0,0,.28-1,2.81,2.81,0,0,0-.45-1.64,6.78,6.78,0,0,0-1.21-1.28l-1.92-1.7a5.7,5.7,0,0,1-1.29-1.55,4.29,4.29,0,0,1-.48-2.12,3.62,3.62,0,0,1,1-2.79,4.07,4.07,0,0,1,2.89-1,4.27,4.27,0,0,1,1.79.33,2.8,2.8,0,0,1,1.14.91,4.19,4.19,0,0,1,.63,1.33,7.92,7.92,0,0,1,.27,1.57l-2.38.42a7.57,7.57,0,0,0-.16-1.28,1.81,1.81,0,0,0-.43-.89,1.25,1.25,0,0,0-.92-.32,1.16,1.16,0,0,0-1,.41,1.53,1.53,0,0,0-.33,1,2.38,2.38,0,0,0,.32,1.28,4.92,4.92,0,0,0,.92,1l1.91,1.68A8,8,0,0,1,319,72.23a4.71,4.71,0,0,1,.67,2.57,3.85,3.85,0,0,1-.48,1.94,3.43,3.43,0,0,1-1.34,1.33A4,4,0,0,1,315.86,78.55Z" style="fill:#263238"></path><path d="M321.22,78.35V63.08H324v6.39h3.11V63.08h2.79V78.35H327.1v-6.9H324v6.9Z" style="fill:#263238"></path><path d="M410.11,78.35V63.08h1.94l3.72,8.71V63.08h2.3V78.35h-1.85l-3.73-9.13v9.13Z" style="fill:#263238"></path><path d="M424.53,78.55A4.83,4.83,0,0,1,422,78a3.36,3.36,0,0,1-1.38-1.73,8,8,0,0,1-.41-2.68V67.83a7.69,7.69,0,0,1,.41-2.65A3.27,3.27,0,0,1,422,63.49a6.1,6.1,0,0,1,5.19,0,3.27,3.27,0,0,1,1.38,1.69,7.44,7.44,0,0,1,.42,2.65v5.73a7.56,7.56,0,0,1-.42,2.65,3.44,3.44,0,0,1-1.38,1.73A4.76,4.76,0,0,1,424.53,78.55Zm0-2A1.29,1.29,0,0,0,426,75.37a5.2,5.2,0,0,0,.12-1.15v-7A5,5,0,0,0,426,66a1.46,1.46,0,0,0-.44-.81,1.54,1.54,0,0,0-1-.29,1.29,1.29,0,0,0-1.45,1.1,5.68,5.68,0,0,0-.11,1.15v7a5.93,5.93,0,0,0,.1,1.15,1.49,1.49,0,0,0,.44.83A1.51,1.51,0,0,0,424.53,76.5Z" style="fill:#263238"></path><path d="M439.69,78.55a4.55,4.55,0,0,1-2.63-.66,3.41,3.41,0,0,1-1.33-1.8,8.38,8.38,0,0,1-.38-2.63V68a8.8,8.8,0,0,1,.38-2.72,3.19,3.19,0,0,1,1.33-1.77,4.72,4.72,0,0,1,2.63-.62,4.94,4.94,0,0,1,2.48.53A3,3,0,0,1,443.44,65a6.6,6.6,0,0,1,.38,2.32v1.28h-2.68V67.26a8.36,8.36,0,0,0-.07-1.17,1.41,1.41,0,0,0-.36-.84,1.36,1.36,0,0,0-1-.31,1.44,1.44,0,0,0-1,.33,1.58,1.58,0,0,0-.42.89,6.81,6.81,0,0,0-.1,1.25v6.64a6.25,6.25,0,0,0,.13,1.36,1.43,1.43,0,0,0,.48.81,1.48,1.48,0,0,0,1,.28,1.28,1.28,0,0,0,1-.33,1.64,1.64,0,0,0,.36-.88,8.92,8.92,0,0,0,.08-1.22V72.69h2.68v1.23a7.38,7.38,0,0,1-.36,2.4A3.13,3.13,0,0,1,442.2,78,4.54,4.54,0,0,1,439.69,78.55Z" style="fill:#263238"></path><path d="M445,78.35,448,63.08h3l3.05,15.27h-2.58l-.61-3.53h-2.65l-.63,3.53Zm3.53-5.3h2.07l-1-6.41Z" style="fill:#263238"></path><path d="M459.37,78.55a4.58,4.58,0,0,1-2.3-.53,3.43,3.43,0,0,1-1.4-1.58,6.88,6.88,0,0,1-.53-2.54l2.4-.47a7.65,7.65,0,0,0,.21,1.56A2.38,2.38,0,0,0,458.3,76a1.34,1.34,0,0,0,1,.36,1.09,1.09,0,0,0,1-.4,1.74,1.74,0,0,0,.29-1,2.74,2.74,0,0,0-.46-1.64,7,7,0,0,0-1.2-1.28l-1.93-1.7a5.7,5.7,0,0,1-1.29-1.55,4.29,4.29,0,0,1-.48-2.12,3.59,3.59,0,0,1,1.06-2.79,4,4,0,0,1,2.88-1,4.24,4.24,0,0,1,1.79.33,2.8,2.8,0,0,1,1.14.91,4,4,0,0,1,.64,1.33,8.72,8.72,0,0,1,.26,1.57l-2.38.42a6.67,6.67,0,0,0-.16-1.28,1.73,1.73,0,0,0-.43-.89,1.23,1.23,0,0,0-.91-.32,1.17,1.17,0,0,0-1,.41,1.53,1.53,0,0,0-.33,1,2.38,2.38,0,0,0,.32,1.28,5.31,5.31,0,0,0,.93,1l1.9,1.68a7.76,7.76,0,0,1,1.61,1.86,4.71,4.71,0,0,1,.67,2.57,3.85,3.85,0,0,1-.48,1.94,3.36,3.36,0,0,1-1.34,1.33A4,4,0,0,1,459.37,78.55Z" style="fill:#263238"></path><path d="M464.72,78.35V63.08h2.77v6.39h3.11V63.08h2.79V78.35H470.6v-6.9h-3.11v6.9Z" style="fill:#263238"></path><path d="M548.15,78.55a4.55,4.55,0,0,1-2.63-.66,3.41,3.41,0,0,1-1.33-1.8,8.38,8.38,0,0,1-.38-2.63V68a8.8,8.8,0,0,1,.38-2.72,3.19,3.19,0,0,1,1.33-1.77,4.72,4.72,0,0,1,2.63-.62,4.94,4.94,0,0,1,2.48.53A3,3,0,0,1,551.9,65a6.6,6.6,0,0,1,.38,2.32v1.28H549.6V67.26a8.36,8.36,0,0,0-.07-1.17,1.47,1.47,0,0,0-.35-.84,1.4,1.4,0,0,0-1-.31,1.44,1.44,0,0,0-1,.33,1.58,1.58,0,0,0-.42.89,6.81,6.81,0,0,0-.1,1.25v6.64a6.25,6.25,0,0,0,.13,1.36,1.43,1.43,0,0,0,.48.81,1.48,1.48,0,0,0,1,.28,1.28,1.28,0,0,0,1-.33,1.64,1.64,0,0,0,.36-.88,8.92,8.92,0,0,0,.08-1.22V72.69h2.68v1.23a7.38,7.38,0,0,1-.36,2.4A3.17,3.17,0,0,1,550.67,78,4.6,4.6,0,0,1,548.15,78.55Z" style="fill:#263238"></path><path d="M553.45,78.35l3-15.27h3l3,15.27H560l-.6-3.53h-2.66l-.62,3.53Zm3.52-5.3H559l-1-6.41Z" style="fill:#263238"></path><path d="M567.83,78.55a4.58,4.58,0,0,1-2.3-.53,3.43,3.43,0,0,1-1.4-1.58,6.69,6.69,0,0,1-.52-2.54l2.39-.47a7,7,0,0,0,.22,1.56,2.27,2.27,0,0,0,.54,1.05,1.34,1.34,0,0,0,1,.36,1.07,1.07,0,0,0,1-.4,1.74,1.74,0,0,0,.29-1,2.81,2.81,0,0,0-.45-1.64,7.49,7.49,0,0,0-1.21-1.28l-1.92-1.7a5.74,5.74,0,0,1-1.3-1.55,4.29,4.29,0,0,1-.48-2.12,3.62,3.62,0,0,1,1.06-2.79,4,4,0,0,1,2.88-1,4.24,4.24,0,0,1,1.79.33,2.9,2.9,0,0,1,1.15.91,4.19,4.19,0,0,1,.63,1.33,8.72,8.72,0,0,1,.26,1.57l-2.38.42a6.67,6.67,0,0,0-.16-1.28,1.73,1.73,0,0,0-.43-.89,1.23,1.23,0,0,0-.91-.32,1.15,1.15,0,0,0-1,.41,1.47,1.47,0,0,0-.33,1,2.3,2.3,0,0,0,.32,1.28,4.92,4.92,0,0,0,.92,1l1.9,1.68A8,8,0,0,1,571,72.23a4.79,4.79,0,0,1,.66,2.57,3.85,3.85,0,0,1-.48,1.94,3.36,3.36,0,0,1-1.34,1.33A4,4,0,0,1,567.83,78.55Z" style="fill:#263238"></path><path d="M573.18,78.35V63.08H576v6.39h3.11V63.08h2.79V78.35h-2.79v-6.9H576v6.9Z" style="fill:#263238"></path><path d="M592.92,78.55a4.89,4.89,0,0,1-2.59-.6A3.29,3.29,0,0,1,589,76.22a7.73,7.73,0,0,1-.42-2.68V67.83a7.44,7.44,0,0,1,.42-2.65,3.2,3.2,0,0,1,1.37-1.69,6.12,6.12,0,0,1,5.2,0,3.3,3.3,0,0,1,1.37,1.69,7.21,7.21,0,0,1,.43,2.65v5.73a7.33,7.33,0,0,1-.43,2.65,3.48,3.48,0,0,1-1.37,1.73A4.8,4.8,0,0,1,592.92,78.55Zm0-2a1.48,1.48,0,0,0,1-.3,1.56,1.56,0,0,0,.45-.83,5.91,5.91,0,0,0,.11-1.15v-7a5.68,5.68,0,0,0-.11-1.15,1.3,1.3,0,0,0-1.47-1.1,1.51,1.51,0,0,0-1,.29,1.48,1.48,0,0,0-.46.81,5.68,5.68,0,0,0-.11,1.15v7a5.91,5.91,0,0,0,.11,1.15,1.37,1.37,0,0,0,.44.83A1.48,1.48,0,0,0,592.92,76.5Z" style="fill:#263238"></path><path d="M599.38,78.35V63.08h1.94L605,71.79V63.08h2.3V78.35h-1.85l-3.73-9.13v9.13Z" style="fill:#263238"></path><path d="M609.66,78.35V63.08h2.79V76.42h3.69v1.93Z" style="fill:#263238"></path><path d="M618.78,78.35V72.52l-3.09-9.44h2.6l1.88,6,1.78-6h2.54l-3,9.44v5.83Z" style="fill:#263238"></path><path d="M170.41,134.54v-9.49a4,4,0,0,1-.36.18l-.44.18-.44.19-.39.17V124l.46-.24.63-.35q.34-.19.63-.39a2.84,2.84,0,0,0,.44-.34h1.93v11.91Z" style="fill:#263238"></path><path d="M312.56,134.54V132.8l2.86-4.38.61-.94a5.08,5.08,0,0,0,.47-.93,2.7,2.7,0,0,0,.18-1,1.24,1.24,0,0,0-.2-.77.72.72,0,0,0-.56-.25.87.87,0,0,0-.62.22,1.15,1.15,0,0,0-.3.59,3.54,3.54,0,0,0-.08.83v.58h-2.39v-.63a5.13,5.13,0,0,1,.34-1.89,2.83,2.83,0,0,1,1.08-1.31,3.46,3.46,0,0,1,1.92-.48,3.26,3.26,0,0,1,2.42.83,3.16,3.16,0,0,1,.82,2.32,3.89,3.89,0,0,1-.23,1.34,6.12,6.12,0,0,1-.6,1.2c-.25.39-.52.79-.8,1.21l-2.18,3.25h3.49v1.93Z" style="fill:#263238"></path><path d="M459.3,134.76a3.57,3.57,0,0,1-2-.47,2.49,2.49,0,0,1-1-1.32A5.54,5.54,0,0,1,456,131v-.42h2.46V131a5,5,0,0,0,.07,1,.92.92,0,0,0,.27.54.78.78,0,0,0,.53.17.69.69,0,0,0,.51-.18,1,1,0,0,0,.22-.53,5.35,5.35,0,0,0,.06-.88,3,3,0,0,0-.24-1.35,1.06,1.06,0,0,0-1-.48h-.45v-1.69h.39a1.16,1.16,0,0,0,1.05-.42,2.69,2.69,0,0,0,.26-1.33,2.5,2.5,0,0,0-.18-1.06.7.7,0,0,0-.69-.36.62.62,0,0,0-.64.41,3.1,3.1,0,0,0-.15,1.06v.61H456v-.72a3.84,3.84,0,0,1,.39-1.81,2.66,2.66,0,0,1,1.12-1.13,3.78,3.78,0,0,1,1.74-.38,3.86,3.86,0,0,1,1.77.37,2.51,2.51,0,0,1,1.13,1.08,3.51,3.51,0,0,1,.4,1.77,3.27,3.27,0,0,1-.43,1.75,1.75,1.75,0,0,1-1,.87,2,2,0,0,1,.75.47,2.32,2.32,0,0,1,.52.87,4.33,4.33,0,0,1,.19,1.41,5.46,5.46,0,0,1-.32,1.93,2.63,2.63,0,0,1-1,1.31A3.41,3.41,0,0,1,459.3,134.76Z" style="fill:#263238"></path><path d="M602,134.54v-2.68h-3.66v-1.81l3.1-7.42h2.85V130h1.11v1.82h-1.11v2.68Zm-1.8-4.5H602v-5Z" style="fill:#263238"></path></g><g id="freepik--car-2--inject-10"><path d="M435.15,381.59a11.1,11.1,0,0,0-5.58-2.48c-3.3-.41-8.88.83-9.71,4.54s5.17,7.65,7.24,7.65,4.33-.21,4.33-.21Z" style="fill:#fff;stroke:#263238;stroke-miterlimit:10"></path><path d="M433.51,382.36a8.73,8.73,0,0,0-4.39-1.95c-2.59-.33-7,.65-7.63,3.57s4.06,6,5.69,6,3.4-.16,3.4-.16Z" style="fill:#263238"></path><path d="M552.75,381.59a11.1,11.1,0,0,1,5.58-2.48c3.3-.41,8.88.83,9.71,4.54s-5.17,7.65-7.23,7.65-4.34-.21-4.34-.21Z" style="fill:#fff;stroke:#263238;stroke-miterlimit:10"></path><path d="M554.4,382.36a8.67,8.67,0,0,1,4.38-1.95c2.6-.33,7,.65,7.63,3.57s-4.06,6-5.68,6-3.41-.16-3.41-.16Z" style="fill:#263238"></path><rect x="419.98" y="427.78" width="18.91" height="50.16" rx="3.84" style="fill:#263238;stroke:#263238;stroke-miterlimit:10"></rect><rect x="550.31" y="427.78" width="18.91" height="50.16" rx="3.84" style="fill:#263238;stroke:#263238;stroke-miterlimit:10"></rect><path d="M445,359.27l-12.74,28.47s-7.32,7.59-10.57,16.26-3.25,11.12-3.53,19.79,6.78,27.92,8.41,31.45,5.69,5.15,5.69,5.15H558s4.07-1.63,5.43-4.07,7.59-20.6,7.86-32.26-3.8-24.12-6-27.92-9.21-8.95-9.21-8.95l-12.2-28.46a26.85,26.85,0,0,0-8.41-5.15c-5.42-2.17-29-3.52-41.2-3.52s-32.8,1.08-37.41,2.44S446.61,356.83,445,359.27Z" style="fill:#fff;stroke:#263238;stroke-miterlimit:10"></path><polygon points="556.13 387.19 544.16 359.27 444.98 359.27 432.48 387.19 556.13 387.19" style="fill:#263238;stroke:#263238;stroke-miterlimit:10"></polygon><path d="M430.61,395.6a41.08,41.08,0,0,0-4.6,13c-1.09,7.05,0,11.11,3.25,11.66s12.2,2.44,14.64-.55.54-18.43-.27-22.5S434.41,390.18,430.61,395.6Z" style="fill:#263238;stroke:#263238;stroke-miterlimit:10"></path><path d="M559.34,395.6a41,41,0,0,1,4.61,13c1.09,7.05,0,11.11-3.25,11.66s-12.2,2.44-14.64-.55-.54-18.43.27-22.5S555.55,390.18,559.34,395.6Z" style="fill:#263238;stroke:#263238;stroke-miterlimit:10"></path><path d="M563.45,456.32c1.35-2.44,7.59-20.6,7.86-32.26a57.11,57.11,0,0,0-.52-8.78c-.26,1.78-.58,4-.84,6.07-.54,4.34-5.69,27.38-7.86,29s-9.76,1.89-9.76,1.89-2.44-3-5.15-3.79-96.23-.81-102.47-.54-8.13,4.06-8.13,4.06-5.15-.54-7.59-1.62a4.36,4.36,0,0,1-2.44-3.8c-2.68-5.14-6.29-23.39-7.87-31.89-.34,2.53-.41,5.18-.54,9.12-.27,8.68,6.78,27.92,8.41,31.45s5.69,5.15,5.69,5.15H558S562.09,458.76,563.45,456.32Z" style="fill:#263238;stroke:#263238;stroke-miterlimit:10"></path><path d="M457.45,456.32a2.71,2.71,0,1,0-2.71,2.71A2.71,2.71,0,0,0,457.45,456.32Z" style="fill:#fff;stroke:#263238;stroke-miterlimit:10"></path><path d="M507.17,452H484.29s-.28,3,2,3.8c2.08.74,8.42.12,9.46,0,1,.1,7.39.72,9.46,0C507.46,455,507.17,452,507.17,452Z" style="fill:#fff;stroke:#263238;stroke-miterlimit:10"></path><rect x="470.9" y="405.14" width="48.15" height="10.12" style="fill:#fff;stroke:#263238;stroke-miterlimit:10"></rect><path d="M462.84,402h63.85s-2.27-5-4.54-5.57-33.89-1.24-39.88-1-14.88.42-17.15,2.07A6,6,0,0,0,462.84,402Z" style="fill:#263238;stroke:#263238;stroke-miterlimit:10"></path><path d="M439.87,421.33s-.35,4.55,6.3,5.25,48.32,2.1,65.47,2.1,31.51-1.4,35.37-2.8,3.85-4.2,3.85-4.2" style="fill:none;stroke:#263238;stroke-miterlimit:10"></path><line x1="441.27" y1="430.78" x2="546.3" y2="430.78" style="fill:none;stroke:#263238;stroke-miterlimit:10"></line></g><g id="freepik--car-1--inject-10"><path d="M265.15,350.84l-.45-.58s.54-3.43.54-3.84,0-.58-.31-.58a42.71,42.71,0,0,0-6,.81c-1.21.41-1.35.54-1.21.9s.81,2.17,1.39,2.44a10.6,10.6,0,0,0,2.3.4,30.77,30.77,0,0,0,2.89,3C264.43,353.23,265.15,350.84,265.15,350.84Z" style="fill:#fff;stroke:#263238;stroke-miterlimit:10"></path><path d="M258.34,347.37s1.08,2.44,1.63,2.53a25.79,25.79,0,0,0,4.1.22c.32-.13.81-3,.77-3.47s-.27-.45-.63-.45-5.28.81-5.28.81A.75.75,0,0,0,258.34,347.37Z" style="fill:#263238;stroke:#263238;stroke-linecap:round;stroke-miterlimit:10"></path><path d="M325.67,350.84l.45-.58s-.54-3.43-.54-3.84.05-.58.32-.58a42.6,42.6,0,0,1,6,.81c1.22.41,1.35.54,1.22.9s-.81,2.17-1.4,2.44a10.6,10.6,0,0,1-2.3.4,30.77,30.77,0,0,1-2.89,3C326.39,353.23,325.67,350.84,325.67,350.84Z" style="fill:#fff;stroke:#263238;stroke-miterlimit:10"></path><path d="M332.48,347.37s-1.08,2.44-1.62,2.53a25.91,25.91,0,0,1-4.11.22c-.31-.13-.81-3-.76-3.47s.27-.45.63-.45,5.27.81,5.27.81A.74.74,0,0,1,332.48,347.37Z" style="fill:#263238;stroke:#263238;stroke-linecap:round;stroke-miterlimit:10"></path><rect x="264.42" y="370.32" width="8.4" height="17.51" rx="2.33" style="fill:#263238;stroke:#263238;stroke-miterlimit:10"></rect><rect x="262.5" y="370.32" width="8.4" height="17.51" rx="2.17" style="fill:#636363;stroke:#263238;stroke-miterlimit:10"></rect><rect x="317.98" y="370.32" width="8.4" height="17.51" rx="2.19" style="fill:#263238;stroke:#263238;stroke-miterlimit:10"></rect><rect x="322.33" y="370.32" width="8.4" height="17.51" rx="2.42" style="fill:#636363;stroke:#263238;stroke-miterlimit:10"></rect><path d="M277.46,332.26s-2.7.42-3.79,1.6S266.26,349,266.26,349a12.75,12.75,0,0,0-1.77,2.61c-.08.58-3,5.89-3,6.9s.09,9.09.85,13,2.1,7.66,3.87,8.67a4.21,4.21,0,0,0,1.77.68c1.09.17,3.78.25,3.78.25a13.13,13.13,0,0,0,4.21.67,9.65,9.65,0,0,0,4.3-.67h5.89s5.05.34,7.91.34a50.26,50.26,0,0,0,7.08-.76l2.69.34a28.28,28.28,0,0,0,4.55.67,22.09,22.09,0,0,0,3.87-.51,8.87,8.87,0,0,0,3.7,1,30,30,0,0,0,5.64-.68s5-.34,6.82-2.44,2.78-8.84,2.86-10.35.43-8.93.09-9.77-2.44-6.74-2.61-7.07.17-.84-.42-1.6a14.53,14.53,0,0,0-1.85-1.69c-.26-.25-7.41-13.8-8-14.56a5.21,5.21,0,0,0-2.19-1.43l-.34-.09a203.39,203.39,0,0,0-20.29-1.43A172.16,172.16,0,0,0,277.46,332.26Z" style="fill:#fff;stroke:#263238;stroke-miterlimit:10"></path><path d="M274.6,336.89l-3.37,10.19s15.83,1.68,25.59,1.6c8.51-.07,25.43-1.52,25.43-1.52l-3.71-10S294.55,333.52,274.6,336.89Z" style="fill:#263238;stroke:#263238;stroke-linecap:round;stroke-miterlimit:10"></path><path d="M265.76,351.37a6.85,6.85,0,0,0-.17,2.53c.25.76.34,2.27.92,2.36s10.86.08,10.86.08,5.22-2.61,5.39-3.12-.17-.75-.59-.75S267.86,351,267.86,351,266.35,350.61,265.76,351.37Z" style="fill:#263238;stroke:#263238;stroke-linecap:round;stroke-miterlimit:10"></path><path d="M328,351.37a6.85,6.85,0,0,1,.17,2.53c-.25.76-.34,2.27-.93,2.36s-10.86.08-10.86.08-5.22-2.61-5.38-3.12.16-.75.58-.75S325.87,351,325.87,351,327.38,350.61,328,351.37Z" style="fill:#263238;stroke:#263238;stroke-linecap:round;stroke-miterlimit:10"></path><path d="M273.17,356.84s2.86,2.19,4.54,2.45,37.55,0,37.55,0a7.58,7.58,0,0,0,2.61-.51,12.1,12.1,0,0,0,2.78-2.1" style="fill:#fff;stroke:#263238;stroke-miterlimit:10"></path><path d="M274.6,370.65s3.53-5.13,7.57-5.64,29,0,30.82.34,6.31,5,6.31,5" style="fill:#fff;stroke:#263238;stroke-miterlimit:10"></path><rect x="287.31" y="366.02" width="19.95" height="3.96" style="fill:#fff;stroke:#263238;stroke-miterlimit:10"></rect><path d="M322.16,376.88a4.87,4.87,0,0,0-3.11-2s-41.51-.25-43.7,0a7,7,0,0,0-3.87,2.19h-7.55a6.46,6.46,0,0,0,2.25,3.11,4.21,4.21,0,0,0,1.77.68c1.09.17,3.78.25,3.78.25a13.13,13.13,0,0,0,4.21.67,9.65,9.65,0,0,0,4.3-.67h5.89s5.05.34,7.91.34a50.26,50.26,0,0,0,7.08-.76l2.69.34a28.28,28.28,0,0,0,4.55.67,22.09,22.09,0,0,0,3.87-.51,8.87,8.87,0,0,0,3.7,1,30,30,0,0,0,5.64-.68s5-.34,6.82-2.44a6.35,6.35,0,0,0,1-1.75Z" style="fill:#263238;stroke:#263238;stroke-linecap:round;stroke-miterlimit:10"></path></g></svg>
